# xmcd
#
# Track frame offsets:
# 150
# 11772
# 23973
# 32877
# 44488
# 54124
# 62921
# 73563
# 86110
# 95657
# 107546
# 119069
#
# Disc length: 1714 seconds
#
#
# Revision: 0
# Processed by: cddbd v1.4PL0 Copyright (c) Steve Scherf et al.
# Submitted via: FreeRIP 2.00 
#
DISCID=a606b00c
DTITLE=Skeeter Davis - The Best Of Skeeter Davis
DYEAR=1965
DGENRE=Country
TTITLE0=The End Of The World
TTITLE1=(I Can't Help You) I'm Falling Too
TTITLE2=I'm Saving My Love
TTITLE3=I Will
TTITLE4=Something Precious
TTITLE5=Now I Lay Me Down To Weep
TTITLE6=Gonna Get Along Without You Now
TTITLE7=He Says The Same Thing To Me
TTITLE8=I Can't Stay Mad At You
TTITLE9=I Forgot More Than You'll Ever Know
TTITLE10=My Last Date
TTITLE11=Am I That Easy To Forget
EXTD=RCA LPM-3374
EXTT0=
EXTT1=
EXTT2=
EXTT3=
EXTT4=
EXTT5=
EXTT6=
EXTT7=
EXTT8=
EXTT9=
EXTT10=
EXTT11=
PLAYORDER=
